<?xml version="1.0" encoding="UTF-8"?>
<svg id="Layer_1" data-name="Layer 1" xmlns="http://www.w3.org/2000/svg" viewBox="0 0 3061.42 1140.77">
  <defs>
    <style>
      .cls-1 {
        fill: #aaadb4;
      }

      .cls-2, .cls-3 {
        fill: #e20731;
      }

      .cls-3 {
        fill-rule: evenodd;
      }
    </style>
  </defs>
  <path class="cls-3" d="M171.76,804.07v47.12h47.21v94.26h-94.53V402.11l424.59-245.13v788.47h-94.61v-94.26h47.29v-47.12h-94.15v188.68h189.02v-47.31h-.27v-329.88l81.33-46.94h-81.33V75.04l-47.29,27.31h0S124.45,347.49,124.45,347.49l-47.3,27.31v617.96h189.04v-188.68h-94.42ZM454.43,521.67v-125.01h41.54l-41.54-23.99v-106.45l47.29-27.32v329.72H171.76v-139.21l47.31-27.31v119.57h235.37ZM360.44,474.36v-153.88l46.86-27.06v180.94h-46.86ZM313.14,347.8h0v126.57h-46.96v-99.46l46.96-27.11h0ZM171.76,709.82h329.97v47.3h-141.36v235.63h-47.32v-235.63h-141.29v-47.3h0ZM501.73,615.74h0v46.95H171.76v-46.95h329.97Z"/>
  <g>
    <path class="cls-2" d="M927.88,356.03c0,9.62.86,17.24,2.58,22.83,1.69,5.59,4.03,9.96,6.97,13.06,2.95,3.1,6.61,5.29,10.97,6.51,4.33,1.26,9,2.18,13.98,2.8h-107.17c5.25-.61,10.08-1.54,14.44-2.8,4.33-1.23,7.99-3.41,10.94-6.51s5.29-7.47,7.01-13.06c1.69-5.59,2.55-13.21,2.55-22.83V79.25h-.46c-18.04,0-32.32,3.16-42.86,9.53-10.57,6.39-18.8,13.77-24.7,22.15-5.9,8.39-10.02,16.78-12.35,25.17s-4.12,14.44-5.38,18.16l13.52-79.21h181.75l13.98,79.21c-1.26-3.72-3.1-9.77-5.59-18.16-2.49-8.39-6.61-16.78-12.35-25.17-5.75-8.39-13.98-15.76-24.7-22.15-10.72-6.36-24.92-9.53-42.62-9.53h-.49v276.79Z"/>
    <path class="cls-2" d="M1106.84,356.03c0,9.62.83,17.24,2.55,22.83,1.69,5.59,4.12,9.96,7.22,13.06,3.1,3.1,6.82,5.29,11.18,6.51,4.36,1.26,9,2.18,13.98,2.8h-107.17c5.29-.61,10.08-1.54,14.44-2.8,4.36-1.23,7.99-3.41,10.94-6.51,2.95-3.1,5.29-7.47,7.01-13.06,1.69-5.59,2.55-13.21,2.55-22.83V120.24c0-9.62-.86-17.24-2.55-22.83-1.72-5.59-4.06-9.92-7.01-13.06-2.95-3.1-6.58-5.25-10.94-6.51-4.36-1.23-9.16-2.18-14.44-2.8h107.17c-4.98.61-9.62,1.57-13.98,2.8-4.36,1.26-8.08,3.41-11.18,6.51-3.1,3.13-5.53,7.47-7.22,13.06-1.72,5.59-2.55,13.21-2.55,22.83v107.17h142.11v-107.17c0-9.62-.86-17.24-2.55-22.83-1.72-5.59-4.06-9.92-7.01-13.06-2.95-3.1-6.61-5.25-10.94-6.51-4.36-1.23-9.16-2.18-14.44-2.8h107.17c-4.98.61-9.65,1.57-13.98,2.8-4.36,1.26-8.02,3.41-10.97,6.51-2.95,3.13-5.29,7.47-6.97,13.06-1.72,5.59-2.55,13.21-2.55,22.83v235.8c0,9.62.83,17.24,2.55,22.83,1.69,5.59,4.03,9.96,6.97,13.06s6.61,5.29,10.97,6.51c4.33,1.26,9,2.18,13.98,2.8h-107.17c5.29-.61,10.08-1.54,14.44-2.8,4.33-1.23,7.99-3.41,10.94-6.51,2.95-3.1,5.29-7.47,7.01-13.06,1.69-5.59,2.55-13.21,2.55-22.83v-124.41h-142.11v124.41Z"/>
    <path class="cls-2" d="M1553.23,400.77v.46h-203.63c5.29-.61,10.08-1.54,14.44-2.8,4.36-1.23,7.99-3.41,10.94-6.51,2.95-3.1,5.29-7.47,7.01-13.06,1.69-5.59,2.55-13.21,2.55-22.83V120.24c0-9.62-.86-17.24-2.55-22.83-1.72-5.59-4.06-9.92-7.01-13.06-2.95-3.1-6.58-5.25-10.94-6.51-4.36-1.23-9.16-2.18-14.44-2.8h198.03l13.52,79.21c-1.23-3.72-3.01-9.77-5.35-18.16-2.34-8.39-6.45-16.78-12.35-25.17-5.9-8.39-14.13-15.76-24.7-22.15-10.57-6.36-24.86-9.53-42.86-9.53h-54.05v148.16h61.02c7.47,0,13.37-1.47,17.73-4.42,4.33-2.95,7.68-6.61,10.02-10.94,2.3-4.36,4.03-9.1,5.1-14.23,1.11-5.13,1.97-9.86,2.58-14.2v91.78c-.61-4.33-1.47-9-2.58-13.98-1.08-4.95-2.8-9.71-5.1-14.2-2.34-4.52-5.68-8.23-10.02-11.18-4.36-2.95-10.26-4.42-17.73-4.42h-61.02v126.29c0,8.7.37,15.61,1.17,20.71.77,5.13,2.55,9.1,5.35,11.89,2.8,2.8,7.07,4.58,12.81,5.38,5.75.77,13.58,1.17,23.54,1.17h16.78c18.01,0,32.29-3.2,42.86-9.56,10.57-6.36,18.8-13.77,24.7-22.15,5.9-8.39,10.02-16.78,12.35-25.17,2.34-8.39,4.12-14.44,5.35-18.16l-13.52,78.75Z"/>
    <path class="cls-2" d="M1897.13,136.55l-78.75,271.19h-1.87c-1.84-5.59-4.58-16.07-8.14-31.43-3.56-15.39-7.47-33.25-11.65-53.59-4.21-20.34-8.63-41.73-13.27-64.1-4.67-22.37-8.94-43.08-12.81-62.19-3.9-19.11-7.16-35.34-9.8-48.7-2.64-13.37-4.27-20.99-4.89-22.83-4.67-17.7-11.43-30.05-20.28-37.06-8.85-6.97-20.74-11.25-35.64-12.81h130c-14.29,1.26-24.55,5.53-30.76,12.81-6.21,7.31-7.62,18.71-4.18,34.26l41.94,210.14,75.46-262.81h4.21l75.96,257.71,38.22-173.82c4.03-18.65,5.87-33.09,5.59-43.32-.34-10.26-2.27-17.88-5.84-22.86-3.56-4.95-8.48-8.05-14.69-9.31-6.21-1.23-13.37-2.18-21.42-2.8h105.3c-9.31.92-17.33,2.34-24,4.21-6.7,1.84-12.51,5.59-17.48,11.18-4.98,5.59-9.4,13.58-13.27,24-3.87,10.39-7.68,24.46-11.4,42.16l-55.46,251.16h-2.34l-78.75-271.19Z"/>
    <path class="cls-2" d="M2165.56,356.03c0,9.62.83,17.24,2.55,22.83,1.69,5.59,4.12,9.96,7.22,13.06,3.1,3.1,6.82,5.29,11.18,6.51,4.36,1.26,9,2.18,13.98,2.8h-107.17c5.29-.61,10.08-1.54,14.44-2.8,4.36-1.23,7.99-3.41,10.94-6.51,2.95-3.1,5.29-7.47,7.01-13.06,1.69-5.59,2.55-13.21,2.55-22.83V120.24c0-9.62-.86-17.24-2.55-22.83-1.72-5.59-4.06-9.92-7.01-13.06-2.95-3.1-6.58-5.25-10.94-6.51-4.36-1.23-9.16-2.18-14.44-2.8h107.17c-4.98.61-9.62,1.57-13.98,2.8-4.36,1.26-8.08,3.41-11.18,6.51-3.1,3.13-5.53,7.47-7.22,13.06-1.72,5.59-2.55,13.21-2.55,22.83v107.17h142.11v-107.17c0-9.62-.86-17.24-2.55-22.83-1.72-5.59-4.06-9.92-7.01-13.06-2.95-3.1-6.61-5.25-10.94-6.51-4.36-1.23-9.16-2.18-14.44-2.8h107.17c-4.98.61-9.65,1.57-13.98,2.8-4.36,1.26-8.02,3.41-10.97,6.51-2.95,3.13-5.29,7.47-6.97,13.06-1.72,5.59-2.55,13.21-2.55,22.83v235.8c0,9.62.83,17.24,2.55,22.83,1.69,5.59,4.03,9.96,6.97,13.06,2.95,3.1,6.61,5.29,10.97,6.51,4.33,1.26,9,2.18,13.98,2.8h-107.17c5.29-.61,10.08-1.54,14.44-2.8,4.33-1.23,7.99-3.41,10.94-6.51,2.95-3.1,5.29-7.47,7.01-13.06,1.69-5.59,2.55-13.21,2.55-22.83v-124.41h-142.11v124.41Z"/>
    <path class="cls-2" d="M2480.57,356.03c0,9.62.83,17.24,2.55,22.83,1.69,5.59,4.12,9.96,7.22,13.06,3.1,3.1,6.82,5.29,11.18,6.51,4.36,1.26,9,2.18,13.98,2.8h-107.17c5.29-.61,10.08-1.54,14.44-2.8,4.36-1.23,7.99-3.41,10.94-6.51s5.29-7.47,7.01-13.06c1.69-5.59,2.55-13.21,2.55-22.83V120.24c0-9.62-.86-17.24-2.55-22.83-1.72-5.59-4.06-9.92-7.01-13.06-2.95-3.1-6.58-5.25-10.94-6.51-4.36-1.23-9.16-2.18-14.44-2.8h107.17c-4.98.61-9.62,1.57-13.98,2.8-4.36,1.26-8.08,3.41-11.18,6.51-3.1,3.13-5.53,7.47-7.22,13.06-1.72,5.59-2.55,13.21-2.55,22.83v235.8Z"/>
    <path class="cls-2" d="M2660.41,356.03c0,9.62.86,17.24,2.58,22.83,1.69,5.59,4.03,9.96,6.97,13.06s6.61,5.29,10.97,6.51c4.33,1.26,9,2.18,13.98,2.8h-107.17c5.25-.61,10.08-1.54,14.44-2.8,4.33-1.23,7.99-3.41,10.94-6.51s5.29-7.47,7.01-13.06c1.69-5.59,2.55-13.21,2.55-22.83V79.25h-.46c-18.04,0-32.32,3.16-42.86,9.53-10.57,6.39-18.8,13.77-24.7,22.15-5.9,8.39-10.02,16.78-12.35,25.17-2.34,8.39-4.12,14.44-5.38,18.16l13.52-79.21h181.75l13.98,79.21c-1.26-3.72-3.1-9.77-5.59-18.16-2.49-8.39-6.61-16.78-12.35-25.17-5.75-8.39-13.98-15.76-24.7-22.15-10.72-6.36-24.92-9.53-42.62-9.53h-.49v276.79Z"/>
    <path class="cls-2" d="M2970.75,400.77v.46h-203.63c5.29-.61,10.08-1.54,14.44-2.8,4.36-1.23,7.99-3.41,10.94-6.51,2.95-3.1,5.29-7.47,7.01-13.06,1.69-5.59,2.55-13.21,2.55-22.83V120.24c0-9.62-.86-17.24-2.55-22.83-1.72-5.59-4.06-9.92-7.01-13.06-2.95-3.1-6.58-5.25-10.94-6.51-4.36-1.23-9.16-2.18-14.44-2.8h198.03l13.52,79.21c-1.23-3.72-3.01-9.77-5.35-18.16-2.34-8.39-6.45-16.78-12.35-25.17-5.9-8.39-14.13-15.76-24.7-22.15-10.57-6.36-24.86-9.53-42.86-9.53h-54.05v148.16h61.02c7.47,0,13.37-1.47,17.73-4.42,4.33-2.95,7.68-6.61,10.02-10.94,2.3-4.36,4.03-9.1,5.1-14.23,1.11-5.13,1.97-9.86,2.58-14.2v91.78c-.61-4.33-1.47-9-2.58-13.98-1.08-4.95-2.8-9.71-5.1-14.2-2.34-4.52-5.68-8.23-10.02-11.18-4.36-2.95-10.26-4.42-17.73-4.42h-61.02v126.29c0,8.7.37,15.61,1.17,20.71.77,5.13,2.55,9.1,5.35,11.89,2.8,2.8,7.07,4.58,12.81,5.38,5.75.77,13.58,1.17,23.54,1.17h16.78c18.01,0,32.29-3.2,42.86-9.56,10.57-6.36,18.8-13.77,24.7-22.15,5.9-8.39,10.02-16.78,12.35-25.17,2.34-8.39,4.12-14.44,5.35-18.16l-13.52,78.75Z"/>
  </g>
  <g>
    <path class="cls-1" d="M985.43,926.48c0,14.14,1.25,25.27,3.75,33.5,2.5,8.19,5.91,14.58,10.23,19.11,4.35,4.57,9.7,7.76,16.08,9.57,6.35,1.81,13.2,3.19,20.49,4.1h-157.14c7.76-.91,14.79-2.28,21.17-4.1,6.38-1.81,11.73-5,16.08-9.57,4.32-4.54,7.73-10.92,10.23-19.11,2.5-8.23,3.75-19.36,3.75-33.5v-405.79h-.66c-26.43,0-47.39,4.69-62.87,14.01-15.48,9.35-27.56,20.14-36.19,32.47-8.66,12.29-14.7,24.58-18.11,36.88-3.41,12.29-6.04,21.17-7.85,26.65l19.8-116.13h266.42l20.52,116.13c-1.85-5.47-4.57-14.36-8.23-26.65-3.63-12.29-9.66-24.58-18.08-36.88-8.44-12.32-20.52-23.11-36.22-32.47-15.7-9.32-36.56-14.01-62.49-14.01h-.69v405.79Z"/>
    <path class="cls-1" d="M1485.49,849.97c.44,25.52-3.53,47.82-11.98,66.96-8.41,19.11-19.45,35.06-33.12,47.79-13.67,12.76-29.28,22.33-46.79,28.71-17.55,6.38-35.66,9.57-54.33,9.57s-36.19-3.19-53.95-9.57c-17.77-6.38-33.47-15.95-47.14-28.71-13.67-12.73-24.58-28.68-32.78-47.79-8.23-19.14-12.32-41.44-12.32-66.96v-269.17c0-14.11-1.25-25.27-3.75-33.47-2.5-8.19-5.91-14.58-10.23-19.11-4.35-4.57-9.7-7.76-16.08-9.57-6.38-1.81-13.42-3.19-21.17-4.1h157.83c-7.76.91-14.83,2.28-21.17,4.1-6.38,1.81-11.73,5-16.08,9.57-4.32,4.54-7.73,10.92-10.23,19.11-2.53,8.19-3.75,19.36-3.75,33.47v269.17c0,22.77,3.16,42.69,9.54,59.77,6.38,17.08,14.92,31.21,25.62,42.35,10.7,11.17,22.77,19.49,36.22,24.96,13.42,5.44,27.21,8.19,41.32,8.19s28.93-2.85,43.04-8.54c14.14-5.69,26.77-14.23,37.94-25.62,11.13-11.38,20.14-25.52,26.96-42.38,6.85-16.83,10.26-36.41,10.26-58.74v-234.99c0-28.24-4.66-51.48-14.01-69.69-9.32-18.23-21.74-28.46-37.22-30.75h107.94c-15.04,2.28-27.21,12.51-36.56,30.75-9.32,18.2-13.98,41.44-13.98,69.69v234.99Z"/>
    <path class="cls-1" d="M1885.09,873.21c0,21.39-4.54,40.19-13.64,56.36-9.13,16.17-21.21,29.59-36.22,40.29-15.04,10.73-32.34,18.8-51.92,24.27-19.58,5.44-40.07,8.19-61.49,8.19-29.59,0-58.65-5.13-87.11-15.39-28.46-10.23-52.92-26.3-73.44-48.14l25.3-105.22c-1.85,27.77.91,51.8,8.19,72.06,7.26,20.27,17.3,37,30.06,50.23,12.73,13.2,27.31,22.99,43.73,29.37,16.39,6.38,33,9.57,49.86,9.57,14.11,0,27.77-2.28,41-6.85,13.2-4.54,24.93-11.17,35.16-19.8,10.26-8.66,18.45-19.58,24.62-32.81,6.13-13.2,9.23-28.21,9.23-45.07,0-23.24-5.94-42.94-17.77-59.11-11.85-16.14-26.77-30.5-44.76-43.04-17.98-12.51-37.35-24.24-58.05-35.16-20.74-10.95-40.1-22.68-58.08-35.19-17.98-12.54-32.9-26.99-44.76-43.38-11.82-16.39-17.77-36.22-17.77-59.43,0-19.14,3.78-35.66,11.29-49.54,7.51-13.89,17.52-25.27,30.06-34.15,12.51-8.88,26.74-15.36,42.69-19.49,15.95-4.1,32.34-6.13,49.2-6.13,22.3,0,44.04,3.41,65.21,10.26,21.21,6.82,38.63,16.17,52.26,27.99l-9.54,86.08c0-20.49-2.97-38.13-8.88-52.95-5.94-14.79-13.67-26.96-23.24-36.53-9.57-9.57-20.49-16.64-32.78-21.17-12.32-4.57-24.83-6.85-37.6-6.85-11.38,0-22.64,1.85-33.81,5.47-11.17,3.66-21.08,9.1-29.71,16.39-8.66,7.29-15.61,15.95-20.83,25.96-5.25,10.04-7.85,21.64-7.85,34.84,0,19.58,6.26,36.56,18.77,50.89,12.54,14.36,28.02,27.59,46.48,39.63,18.42,12.07,38.6,23.8,60.46,35.19,21.83,11.38,42.01,24.02,60.46,37.91,18.42,13.92,33.9,29.96,46.45,48.17,12.51,18.23,18.77,40.32,18.77,66.28Z"/>
    <path class="cls-1" d="M2015.61,926.48c0,14.14,1.25,25.27,3.75,33.5,2.5,8.19,6.04,14.58,10.57,19.11,4.57,4.57,10.04,7.76,16.42,9.57,6.35,1.81,13.2,3.19,20.49,4.1h-157.14c7.76-.91,14.79-2.28,21.17-4.1,6.38-1.81,11.73-5,16.08-9.57,4.32-4.54,7.73-10.92,10.23-19.11,2.5-8.23,3.75-19.36,3.75-33.5v-345.68c0-14.11-1.25-25.27-3.75-33.47-2.5-8.19-5.91-14.58-10.23-19.11-4.35-4.57-9.7-7.76-16.08-9.57-6.38-1.81-13.42-3.19-21.17-4.1h157.14c-7.29.91-14.14,2.28-20.49,4.1-6.38,1.81-11.85,5-16.42,9.57-4.54,4.54-8.07,10.92-10.57,19.11-2.5,8.19-3.75,19.36-3.75,33.47v345.68ZM2465.79,1056.28c-15.01,4.57-31.65,8.19-49.86,10.95-18.23,2.72-37.13,4.1-56.71,4.1-21.86,0-43.94-2.06-66.28-6.16-22.3-4.1-43.94-11.04-64.9-20.83-20.92-9.79-40.63-22.77-59.08-38.94-18.45-16.17-34.72-36.09-48.86-59.77l-99.06-170.77.69-.69h-.69l120.26-183.1c33.69-51.01,32.78-76.5-2.75-76.5h110.69c-8.23.47-16.17,2.03-23.93,4.79-7.76,2.72-15.61,6.94-23.55,12.64-7.98,5.69-16.3,13.32-24.96,22.86-8.63,9.57-17.77,21.64-27.31,36.22l-93.61,142.09c20.52,34.15,40.75,68.22,60.8,102.12,20.05,33.94,41,67.53,62.87,100.78,15.92,24.58,33,44.98,51.23,61.15,18.2,16.17,37,29.03,56.36,38.6,19.36,9.57,38.69,16.26,58.05,20.14,19.36,3.88,37.94,5.82,55.67,5.82,11.85,0,23.11-.81,33.84-2.38,10.7-1.63,20.58-3.53,29.71-5.82l1.34,2.72Z"/>
    <path class="cls-1" d="M2566.22,992.06v.69h-298.54c7.76-.91,14.79-2.28,21.17-4.1,6.38-1.81,11.73-5,16.08-9.57,4.32-4.54,7.73-10.92,10.23-19.11,2.5-8.23,3.75-19.36,3.75-33.5v-345.68c0-14.11-1.25-25.27-3.75-33.47-2.5-8.19-5.91-14.58-10.23-19.11-4.35-4.57-9.7-7.76-16.08-9.57-6.38-1.81-13.42-3.19-21.17-4.1h290.35l19.8,116.13c-1.81-5.47-4.44-14.36-7.85-26.65-3.41-12.29-9.45-24.58-18.11-36.88-8.63-12.32-20.71-23.11-36.19-32.47-15.48-9.32-36.44-14.01-62.87-14.01h-79.23v217.25h89.48c10.92,0,19.58-2.16,25.96-6.47,6.38-4.35,11.26-9.7,14.7-16.08,3.41-6.35,5.91-13.32,7.51-20.83,1.6-7.51,2.85-14.45,3.75-20.83v134.59c-.91-6.38-2.16-13.2-3.75-20.52-1.6-7.26-4.1-14.2-7.51-20.83-3.44-6.6-8.32-12.04-14.7-16.39-6.38-4.32-15.04-6.47-25.96-6.47h-89.48v185.13c0,12.76.56,22.86,1.69,30.4,1.13,7.51,3.75,13.32,7.85,17.42,4.13,4.1,10.38,6.72,18.8,7.85,8.41,1.13,19.92,1.69,34.5,1.69h24.58c26.43,0,47.39-4.66,62.87-13.98,15.48-9.35,27.56-20.17,36.19-32.47,8.66-12.29,14.7-24.58,18.11-36.88,3.41-12.29,6.04-21.17,7.85-26.65l-19.8,115.44Z"/>
    <path class="cls-1" d="M2984.27,984.56c-5.91,5-13.07,8.88-21.52,11.6-8.41,2.75-16.95,4.1-25.62,4.1s-16.95-1.03-24.93-3.07c-7.98-2.06-15.61-5.82-22.9-11.26-7.29-5.47-14.33-13.32-21.17-23.58-6.82-10.26-13.42-23.55-19.8-39.97-6.38-15.92-12.54-28.78-18.45-38.6-5.91-9.79-11.95-17.42-18.11-22.86-6.13-5.47-12.39-9.23-18.77-11.29-6.38-2.03-13.23-3.07-20.49-3.07v-1.38c25.49,0,46.79-7.94,63.87-23.9,17.08-15.95,29.93-35.97,38.6-60.12,8.63-24.15,12.98-50.23,12.98-78.22s-4.22-54.08-12.64-78.22c-8.44-24.15-21.3-44.16-38.6-60.12-17.33-15.95-38.72-23.93-64.21-23.93h-1.38c-6.85,0-12.64.59-17.42,1.72-4.79,1.16-8.66,3.75-11.6,7.85-2.97,4.1-5.13,9.91-6.51,17.42-1.38,7.51-2.03,17.67-2.03,30.4v348.4c0,14.14,1.22,25.27,3.75,33.5,2.5,8.19,5.91,14.58,10.23,19.11,4.35,4.57,9.7,7.76,16.08,9.57,6.35,1.81,13.42,3.19,21.17,4.1h-157.83c7.76-.91,14.79-2.28,21.17-4.1,6.38-1.81,11.73-5,16.08-9.57,4.32-4.54,7.73-10.92,10.23-19.11,2.5-8.23,3.75-19.36,3.75-33.5v-345.68c0-14.11-1.25-25.27-3.75-33.47-2.5-8.19-5.91-14.58-10.23-19.11-4.35-4.57-9.7-7.76-16.08-9.57-6.38-1.81-13.42-3.19-21.17-4.1h145.53c37.31,0,68.65,7.85,93.93,23.55,25.27,15.73,44.63,35.53,58.05,59.46,13.45,23.9,20.96,49.98,22.55,78.19,1.6,28.24-2.72,54.55-12.98,78.91-10.26,24.37-26.18,45.2-47.82,62.52-21.64,17.3-48.86,26.87-81.63,28.68,26.87,2.28,47.57,8.88,62.18,19.8,14.58,10.95,27.77,28.93,39.6,53.98,11.38,23.68,21.77,40.88,31.09,51.58,9.35,10.7,19.7,16.05,31.09,16.05,5.47,0,10.7-.91,15.7-2.72Z"/>
  </g>
</svg>